<?xml version="1.0" encoding="windows-1252" standalone="no"?>
<svg xmlns="http://www.w3.org/2000/svg" xmlns:xlink="http://www.w3.org/1999/xlink" contentStyleType="text/css" height="861px" preserveAspectRatio="none" style="width:836px;height:861px;background:#FFFFFF;" version="1.1" viewBox="0 0 836 861" width="836px" zoomAndPan="magnify"><defs><filter height="300%" id="f1uyr7jtbgtr0i" width="300%" x="-1" y="-1"><feGaussianBlur result="blurOut" stdDeviation="2.0"/><feColorMatrix in="blurOut" result="blurOut2" type="matrix" values="0 0 0 0 0 0 0 0 0 0 0 0 0 0 0 0 0 0 .4 0"/><feOffset dx="4.0" dy="4.0" in="blurOut2" result="blurOut3"/><feBlend in="SourceGraphic" in2="blurOut3" mode="normal"/></filter></defs><g><text fill="#000000" font-family="sans-serif" font-size="14" font-weight="bold" lengthAdjust="spacing" textLength="222" x="300" y="22.9951">TODOs app - Class Diagram</text><!--class TodosApplication--><g id="elem_TodosApplication"><rect codeLine="5" fill="#FEFECE" filter="url(#f1uyr7jtbgtr0i)" height="194.6719" id="TodosApplication" style="stroke:#A80036;stroke-width:1.0;" width="216" x="106" y="44.2969"/><ellipse cx="147.1" cy="60.2969" fill="#ADD1B2" rx="11" ry="11" style="stroke:#A80036;stroke-width:1.0;"/><path d="M149.4438,55.9688 C148.5063,55.5313 147.9125,55.3906 147.0375,55.3906 C144.4125,55.3906 142.4125,57.4688 142.4125,60.1875 L142.4125,61.3125 C142.4125,63.8906 144.5219,65.7813 147.4125,65.7813 C148.6313,65.7813 149.7875,65.4844 150.5375,64.9375 C151.1156,64.5313 151.4438,64.0781 151.4438,63.6875 C151.4438,63.2344 151.0531,62.8438 150.5844,62.8438 C150.3656,62.8438 150.1625,62.9219 149.975,63.1094 C149.5219,63.5938 149.5219,63.5938 149.3344,63.6875 C148.9125,63.9531 148.225,64.0781 147.4594,64.0781 C145.4125,64.0781 144.1156,62.9844 144.1156,61.2813 L144.1156,60.1875 C144.1156,58.4063 145.3656,57.0938 147.1,57.0938 C147.6781,57.0938 148.2875,57.25 148.7563,57.5 C149.2406,57.7813 149.4125,58 149.5063,58.4063 C149.5688,58.8125 149.6,58.9375 149.7406,59.0625 C149.8813,59.2031 150.1156,59.3125 150.3344,59.3125 C150.6,59.3125 150.8656,59.1719 151.0375,58.9531 C151.1469,58.7969 151.1781,58.6094 151.1781,58.1875 L151.1781,56.7656 C151.1781,56.3281 151.1625,56.2031 151.0688,56.0469 C150.9125,55.7813 150.6313,55.6406 150.3344,55.6406 C150.0375,55.6406 149.8344,55.7344 149.6156,56.0469 L149.4438,55.9688 Z " fill="#000000"/><text fill="#000000" font-family="sans-serif" font-size="14" lengthAdjust="spacing" textLength="126" x="166.9" y="65.1436">TodosApplication</text><line style="stroke:#A80036;stroke-width:1.0;" x1="107" x2="321" y1="76.2969" y2="76.2969"/><rect fill="none" height="6" style="stroke:#C82930;stroke-width:1.0;" width="6" x="114" y="86.9453"/><text fill="#000000" font-family="sans-serif" font-size="14" lengthAdjust="spacing" textLength="190" x="126" y="93.292">TaskManager taskManager</text><rect fill="none" height="6" style="stroke:#C82930;stroke-width:1.0;" width="6" x="114" y="103.2422"/><text fill="#000000" font-family="sans-serif" font-size="14" lengthAdjust="spacing" textLength="118" x="126" y="109.5889">Scanner scanner</text><line style="stroke:#A80036;stroke-width:1.0;" x1="107" x2="321" y1="116.8906" y2="116.8906"/><ellipse cx="117" cy="130.5391" fill="#84BE84" rx="3" ry="3" style="stroke:#038048;stroke-width:1.0;"/><text fill="#000000" font-family="sans-serif" font-size="14" lengthAdjust="spacing" textLength="67" x="126" y="133.8857">void run()</text><ellipse cx="117" cy="146.8359" fill="#84BE84" rx="3" ry="3" style="stroke:#038048;stroke-width:1.0;"/><text fill="#000000" font-family="sans-serif" font-size="14" lengthAdjust="spacing" textLength="79" x="126" y="150.1826">void main()</text><rect fill="#F24D5C" height="6" style="stroke:#C82930;stroke-width:1.0;" width="6" x="114" y="160.1328"/><text fill="#000000" font-family="sans-serif" font-size="14" lengthAdjust="spacing" textLength="152" x="126" y="166.4795">void displayAllTasks()</text><rect fill="#F24D5C" height="6" style="stroke:#C82930;stroke-width:1.0;" width="6" x="114" y="176.4297"/><text fill="#000000" font-family="sans-serif" font-size="14" lengthAdjust="spacing" textLength="124" x="126" y="182.7764">void createTask()</text><rect fill="#F24D5C" height="6" style="stroke:#C82930;stroke-width:1.0;" width="6" x="114" y="192.7266"/><text fill="#000000" font-family="sans-serif" font-size="14" lengthAdjust="spacing" textLength="128" x="126" y="199.0732">void updateTask()</text><rect fill="#F24D5C" height="6" style="stroke:#C82930;stroke-width:1.0;" width="6" x="114" y="209.0234"/><text fill="#000000" font-family="sans-serif" font-size="14" lengthAdjust="spacing" textLength="124" x="126" y="215.3701">void deleteTask()</text><rect fill="#F24D5C" height="6" style="stroke:#C82930;stroke-width:1.0;" width="6" x="114" y="225.3203"/><text fill="#000000" font-family="sans-serif" font-size="14" lengthAdjust="spacing" textLength="59" x="126" y="231.667">void ...()</text></g><!--class Priority--><g id="elem_Priority"><rect codeLine="17" fill="#FEFECE" filter="url(#f1uyr7jtbgtr0i)" height="96.8906" id="Priority" style="stroke:#A80036;stroke-width:1.0;" width="85" x="357.5" y="93.2969"/><ellipse cx="372.5" cy="109.2969" fill="#EB937F" rx="11" ry="11" style="stroke:#A80036;stroke-width:1.0;"/><path d="M371.2969,110.1719 L372.75,110.1719 L372.75,110.2813 C372.75,110.6875 372.7813,110.8438 372.8594,111 C373.0156,111.25 373.2969,111.4063 373.5938,111.4063 C373.8438,111.4063 374.1094,111.2656 374.2656,111.0469 C374.3906,110.8906 374.4219,110.7344 374.4219,110.2813 L374.4219,108.3594 C374.4219,108.2031 374.4219,108.1563 374.4063,108 C374.3438,107.5313 374.0313,107.2188 373.5781,107.2188 C373.3281,107.2188 373.0625,107.3594 372.8906,107.5781 C372.7813,107.75 372.75,107.9063 372.75,108.3594 L372.75,108.4844 L371.2969,108.4844 L371.2969,106.0781 L375.2813,106.0781 L375.2813,106.9375 C375.2813,107.3438 375.3125,107.5156 375.3906,107.6719 C375.5625,107.9219 375.8438,108.0781 376.125,108.0781 C376.3906,108.0781 376.6563,107.9375 376.8281,107.7188 C376.9375,107.5469 376.9688,107.4063 376.9688,106.9375 L376.9688,104.3906 L369.3438,104.3906 C368.9063,104.3906 368.7813,104.4063 368.625,104.5 C368.375,104.6563 368.2188,104.9531 368.2188,105.2344 C368.2188,105.5156 368.3594,105.7656 368.5781,105.9375 C368.7344,106.0469 368.9219,106.0781 369.3438,106.0781 L369.5938,106.0781 L369.5938,112.5938 L369.3438,112.5938 C368.9375,112.5938 368.7813,112.6094 368.625,112.7188 C368.375,112.8906 368.2188,113.1563 368.2188,113.4531 C368.2188,113.7188 368.3594,113.9688 368.5781,114.125 C368.7188,114.25 368.9531,114.2969 369.3438,114.2969 L377.3438,114.2969 L377.3438,111.7188 C377.3438,111.2813 377.3125,111.1406 377.2344,110.9844 C377.0625,110.7344 376.7813,110.5781 376.5,110.5781 C376.2344,110.5781 375.9688,110.6875 375.7969,110.9375 C375.6875,111.0938 375.6563,111.2344 375.6563,111.7188 L375.6563,112.5938 L371.2969,112.5938 L371.2969,110.1719 Z " fill="#000000"/><text fill="#000000" font-family="sans-serif" font-size="14" lengthAdjust="spacing" textLength="53" x="386.5" y="114.1436">Priority</text><line style="stroke:#A80036;stroke-width:1.0;" x1="358.5" x2="441.5" y1="125.2969" y2="125.2969"/><text fill="#000000" font-family="sans-serif" font-size="14" lengthAdjust="spacing" textLength="33" x="363.5" y="142.292">LOW</text><text fill="#000000" font-family="sans-serif" font-size="14" lengthAdjust="spacing" textLength="57" x="363.5" y="158.5889">MEDIUM</text><text fill="#000000" font-family="sans-serif" font-size="14" lengthAdjust="spacing" textLength="35" x="363.5" y="174.8857">HIGH</text><line style="stroke:#A80036;stroke-width:1.0;" x1="358.5" x2="441.5" y1="182.1875" y2="182.1875"/></g><!--class Task--><g id="elem_Task"><rect codeLine="23" fill="#FEFECE" filter="url(#f1uyr7jtbgtr0i)" height="373.9375" id="Task" style="stroke:#A80036;stroke-width:1.0;" width="362" x="460" y="316.2969"/><ellipse cx="620.25" cy="332.2969" fill="#ADD1B2" rx="11" ry="11" style="stroke:#A80036;stroke-width:1.0;"/><path d="M622.5938,327.9688 C621.6563,327.5313 621.0625,327.3906 620.1875,327.3906 C617.5625,327.3906 615.5625,329.4688 615.5625,332.1875 L615.5625,333.3125 C615.5625,335.8906 617.6719,337.7813 620.5625,337.7813 C621.7813,337.7813 622.9375,337.4844 623.6875,336.9375 C624.2656,336.5313 624.5938,336.0781 624.5938,335.6875 C624.5938,335.2344 624.2031,334.8438 623.7344,334.8438 C623.5156,334.8438 623.3125,334.9219 623.125,335.1094 C622.6719,335.5938 622.6719,335.5938 622.4844,335.6875 C622.0625,335.9531 621.375,336.0781 620.6094,336.0781 C618.5625,336.0781 617.2656,334.9844 617.2656,333.2813 L617.2656,332.1875 C617.2656,330.4063 618.5156,329.0938 620.25,329.0938 C620.8281,329.0938 621.4375,329.25 621.9063,329.5 C622.3906,329.7813 622.5625,330 622.6563,330.4063 C622.7188,330.8125 622.75,330.9375 622.8906,331.0625 C623.0313,331.2031 623.2656,331.3125 623.4844,331.3125 C623.75,331.3125 624.0156,331.1719 624.1875,330.9531 C624.2969,330.7969 624.3281,330.6094 624.3281,330.1875 L624.3281,328.7656 C624.3281,328.3281 624.3125,328.2031 624.2188,328.0469 C624.0625,327.7813 623.7813,327.6406 623.4844,327.6406 C623.1875,327.6406 622.9844,327.7344 622.7656,328.0469 L622.5938,327.9688 Z " fill="#000000"/><text fill="#000000" font-family="sans-serif" font-size="14" lengthAdjust="spacing" textLength="33" x="640.75" y="337.1436">Task</text><line style="stroke:#A80036;stroke-width:1.0;" x1="461" x2="821" y1="348.2969" y2="348.2969"/><rect fill="none" height="6" style="stroke:#C82930;stroke-width:1.0;" width="6" x="468" y="358.9453"/><text fill="#000000" font-family="sans-serif" font-size="14" lengthAdjust="spacing" textLength="50" x="480" y="365.292">UUID id</text><rect fill="none" height="6" style="stroke:#C82930;stroke-width:1.0;" width="6" x="468" y="375.2422"/><text fill="#000000" font-family="sans-serif" font-size="14" lengthAdjust="spacing" textLength="79" x="480" y="381.5889">String title</text><rect fill="none" height="6" style="stroke:#C82930;stroke-width:1.0;" width="6" x="468" y="391.5391"/><text fill="#000000" font-family="sans-serif" font-size="14" lengthAdjust="spacing" textLength="130" x="480" y="397.8857">String description</text><rect fill="none" height="6" style="stroke:#C82930;stroke-width:1.0;" width="6" x="468" y="407.8359"/><text fill="#000000" font-family="sans-serif" font-size="14" lengthAdjust="spacing" textLength="111" x="480" y="414.1826">Priority priority</text><rect fill="none" height="6" style="stroke:#C82930;stroke-width:1.0;" width="6" x="468" y="424.1328"/><text fill="#000000" font-family="sans-serif" font-size="14" lengthAdjust="spacing" textLength="98" x="480" y="430.4795">Boolean done</text><rect fill="none" height="6" style="stroke:#C82930;stroke-width:1.0;" width="6" x="468" y="440.4297"/><text fill="#000000" font-family="sans-serif" font-size="14" lengthAdjust="spacing" textLength="121" x="480" y="446.7764">Date createDate</text><line style="stroke:#A80036;stroke-width:1.0;" x1="461" x2="821" y1="454.0781" y2="454.0781"/><ellipse cx="471" cy="467.7266" fill="#84BE84" rx="3" ry="3" style="stroke:#038048;stroke-width:1.0;"/><text fill="#000000" font-family="sans-serif" font-size="14" lengthAdjust="spacing" textLength="43" x="480" y="471.0732">Task()</text><ellipse cx="471" cy="484.0234" fill="#84BE84" rx="3" ry="3" style="stroke:#038048;stroke-width:1.0;"/><text fill="#000000" font-family="sans-serif" font-size="14" lengthAdjust="spacing" textLength="336" x="480" y="487.3701">Task(UUID id, String title, ... , Date createDate)</text><ellipse cx="471" cy="500.3203" fill="#84BE84" rx="3" ry="3" style="stroke:#038048;stroke-width:1.0;"/><text fill="#000000" font-family="sans-serif" font-size="14" lengthAdjust="spacing" textLength="130" x="480" y="503.667">void setId(UUID id)</text><ellipse cx="471" cy="516.6172" fill="#84BE84" rx="3" ry="3" style="stroke:#038048;stroke-width:1.0;"/><text fill="#000000" font-family="sans-serif" font-size="14" lengthAdjust="spacing" textLength="85" x="480" y="519.9639">UUID getId()</text><ellipse cx="471" cy="532.9141" fill="#84BE84" rx="3" ry="3" style="stroke:#038048;stroke-width:1.0;"/><text fill="#000000" font-family="sans-serif" font-size="14" lengthAdjust="spacing" textLength="179" x="480" y="536.2607">void setTitle(String title)</text><ellipse cx="471" cy="549.2109" fill="#84BE84" rx="3" ry="3" style="stroke:#038048;stroke-width:1.0;"/><text fill="#000000" font-family="sans-serif" font-size="14" lengthAdjust="spacing" textLength="116" x="480" y="552.5576">String getTtile()</text><ellipse cx="471" cy="565.5078" fill="#84BE84" rx="3" ry="3" style="stroke:#038048;stroke-width:1.0;"/><text fill="#000000" font-family="sans-serif" font-size="14" lengthAdjust="spacing" textLength="281" x="480" y="568.8545">void setDescription(String description)</text><ellipse cx="471" cy="581.8047" fill="#84BE84" rx="3" ry="3" style="stroke:#038048;stroke-width:1.0;"/><text fill="#000000" font-family="sans-serif" font-size="14" lengthAdjust="spacing" textLength="177" x="480" y="585.1514">String getDescpription()</text><ellipse cx="471" cy="598.1016" fill="#84BE84" rx="3" ry="3" style="stroke:#038048;stroke-width:1.0;"/><text fill="#000000" font-family="sans-serif" font-size="14" lengthAdjust="spacing" textLength="231" x="480" y="601.4482">void setPriority(Priority priority)</text><ellipse cx="471" cy="614.3984" fill="#84BE84" rx="3" ry="3" style="stroke:#038048;stroke-width:1.0;"/><text fill="#000000" font-family="sans-serif" font-size="14" lengthAdjust="spacing" textLength="145" x="480" y="617.7451">Priority getPriority()</text><ellipse cx="471" cy="630.6953" fill="#84BE84" rx="3" ry="3" style="stroke:#038048;stroke-width:1.0;"/><text fill="#000000" font-family="sans-serif" font-size="14" lengthAdjust="spacing" textLength="203" x="480" y="634.042">void setDone(Boolean done)</text><ellipse cx="471" cy="646.9922" fill="#84BE84" rx="3" ry="3" style="stroke:#038048;stroke-width:1.0;"/><text fill="#000000" font-family="sans-serif" font-size="14" lengthAdjust="spacing" textLength="121" x="480" y="650.3389">Boolean isDone()</text><ellipse cx="471" cy="663.2891" fill="#84BE84" rx="3" ry="3" style="stroke:#038048;stroke-width:1.0;"/><text fill="#000000" font-family="sans-serif" font-size="14" lengthAdjust="spacing" textLength="223" x="480" y="666.6357">void setDate(Date createDate)</text><ellipse cx="471" cy="679.5859" fill="#84BE84" rx="3" ry="3" style="stroke:#038048;stroke-width:1.0;"/><text fill="#000000" font-family="sans-serif" font-size="14" lengthAdjust="spacing" textLength="109" x="480" y="682.9326">Date getDate()</text></g><!--class TaskGroup--><g id="elem_TaskGroup"><rect codeLine="46" fill="#FEFECE" filter="url(#f1uyr7jtbgtr0i)" height="178.375" id="TaskGroup" style="stroke:#A80036;stroke-width:1.0;" width="332" x="478" y="52.7969"/><ellipse cx="601.25" cy="68.7969" fill="#ADD1B2" rx="11" ry="11" style="stroke:#A80036;stroke-width:1.0;"/><path d="M603.5938,64.4688 C602.6563,64.0313 602.0625,63.8906 601.1875,63.8906 C598.5625,63.8906 596.5625,65.9688 596.5625,68.6875 L596.5625,69.8125 C596.5625,72.3906 598.6719,74.2813 601.5625,74.2813 C602.7813,74.2813 603.9375,73.9844 604.6875,73.4375 C605.2656,73.0313 605.5938,72.5781 605.5938,72.1875 C605.5938,71.7344 605.2031,71.3438 604.7344,71.3438 C604.5156,71.3438 604.3125,71.4219 604.125,71.6094 C603.6719,72.0938 603.6719,72.0938 603.4844,72.1875 C603.0625,72.4531 602.375,72.5781 601.6094,72.5781 C599.5625,72.5781 598.2656,71.4844 598.2656,69.7813 L598.2656,68.6875 C598.2656,66.9063 599.5156,65.5938 601.25,65.5938 C601.8281,65.5938 602.4375,65.75 602.9063,66 C603.3906,66.2813 603.5625,66.5 603.6563,66.9063 C603.7188,67.3125 603.75,67.4375 603.8906,67.5625 C604.0313,67.7031 604.2656,67.8125 604.4844,67.8125 C604.75,67.8125 605.0156,67.6719 605.1875,67.4531 C605.2969,67.2969 605.3281,67.1094 605.3281,66.6875 L605.3281,65.2656 C605.3281,64.8281 605.3125,64.7031 605.2188,64.5469 C605.0625,64.2813 604.7813,64.1406 604.4844,64.1406 C604.1875,64.1406 603.9844,64.2344 603.7656,64.5469 L603.5938,64.4688 Z " fill="#000000"/><text fill="#000000" font-family="sans-serif" font-size="14" lengthAdjust="spacing" textLength="77" x="621.75" y="73.6436">TaskGroup</text><line style="stroke:#A80036;stroke-width:1.0;" x1="479" x2="809" y1="84.7969" y2="84.7969"/><rect fill="none" height="6" style="stroke:#C82930;stroke-width:1.0;" width="6" x="486" y="95.4453"/><text fill="#000000" font-family="sans-serif" font-size="14" lengthAdjust="spacing" textLength="88" x="498" y="101.792">String name</text><rect fill="none" height="6" style="stroke:#C82930;stroke-width:1.0;" width="6" x="486" y="111.7422"/><text fill="#000000" font-family="sans-serif" font-size="14" lengthAdjust="spacing" textLength="123" x="498" y="118.0889">List&lt;Task&gt; tasks</text><line style="stroke:#A80036;stroke-width:1.0;" x1="479" x2="809" y1="125.3906" y2="125.3906"/><ellipse cx="489" cy="139.0391" fill="#84BE84" rx="3" ry="3" style="stroke:#038048;stroke-width:1.0;"/><text fill="#000000" font-family="sans-serif" font-size="14" lengthAdjust="spacing" textLength="87" x="498" y="142.3857">TaskGroup()</text><ellipse cx="489" cy="155.3359" fill="#84BE84" rx="3" ry="3" style="stroke:#038048;stroke-width:1.0;"/><text fill="#000000" font-family="sans-serif" font-size="14" lengthAdjust="spacing" textLength="306" x="498" y="158.6826">TaskGroup(String name, List&lt;Task&gt; tasks)</text><ellipse cx="489" cy="171.6328" fill="#84BE84" rx="3" ry="3" style="stroke:#038048;stroke-width:1.0;"/><text fill="#000000" font-family="sans-serif" font-size="14" lengthAdjust="spacing" textLength="196" x="498" y="174.9795">void setName(String name)</text><ellipse cx="489" cy="187.9297" fill="#84BE84" rx="3" ry="3" style="stroke:#038048;stroke-width:1.0;"/><text fill="#000000" font-family="sans-serif" font-size="14" lengthAdjust="spacing" textLength="124" x="498" y="191.2764">String getName()</text><ellipse cx="489" cy="204.2266" fill="#84BE84" rx="3" ry="3" style="stroke:#038048;stroke-width:1.0;"/><text fill="#000000" font-family="sans-serif" font-size="14" lengthAdjust="spacing" textLength="230" x="498" y="207.5732">void setTasks(List&lt;Task&gt; tasks)</text><ellipse cx="489" cy="220.5234" fill="#84BE84" rx="3" ry="3" style="stroke:#038048;stroke-width:1.0;"/><text fill="#000000" font-family="sans-serif" font-size="14" lengthAdjust="spacing" textLength="160" x="498" y="223.8701">List&lt;Task&gt; getTasks()</text></g><!--class TaskManager--><g id="elem_TaskManager"><rect codeLine="57" fill="#FEFECE" filter="url(#f1uyr7jtbgtr0i)" height="259.8594" id="TaskManager" style="stroke:#A80036;stroke-width:1.0;" width="414" x="7" y="373.2969"/><ellipse cx="162.75" cy="389.2969" fill="#ADD1B2" rx="11" ry="11" style="stroke:#A80036;stroke-width:1.0;"/><path d="M165.0938,384.9688 C164.1563,384.5313 163.5625,384.3906 162.6875,384.3906 C160.0625,384.3906 158.0625,386.4688 158.0625,389.1875 L158.0625,390.3125 C158.0625,392.8906 160.1719,394.7813 163.0625,394.7813 C164.2813,394.7813 165.4375,394.4844 166.1875,393.9375 C166.7656,393.5313 167.0938,393.0781 167.0938,392.6875 C167.0938,392.2344 166.7031,391.8438 166.2344,391.8438 C166.0156,391.8438 165.8125,391.9219 165.625,392.1094 C165.1719,392.5938 165.1719,392.5938 164.9844,392.6875 C164.5625,392.9531 163.875,393.0781 163.1094,393.0781 C161.0625,393.0781 159.7656,391.9844 159.7656,390.2813 L159.7656,389.1875 C159.7656,387.4063 161.0156,386.0938 162.75,386.0938 C163.3281,386.0938 163.9375,386.25 164.4063,386.5 C164.8906,386.7813 165.0625,387 165.1563,387.4063 C165.2188,387.8125 165.25,387.9375 165.3906,388.0625 C165.5313,388.2031 165.7656,388.3125 165.9844,388.3125 C166.25,388.3125 166.5156,388.1719 166.6875,387.9531 C166.7969,387.7969 166.8281,387.6094 166.8281,387.1875 L166.8281,385.7656 C166.8281,385.3281 166.8125,385.2031 166.7188,385.0469 C166.5625,384.7813 166.2813,384.6406 165.9844,384.6406 C165.6875,384.6406 165.4844,384.7344 165.2656,385.0469 L165.0938,384.9688 Z " fill="#000000"/><text fill="#000000" font-family="sans-serif" font-size="14" lengthAdjust="spacing" textLength="94" x="183.25" y="394.1436">TaskManager</text><line style="stroke:#A80036;stroke-width:1.0;" x1="8" x2="420" y1="405.2969" y2="405.2969"/><rect fill="none" height="6" style="stroke:#C82930;stroke-width:1.0;" width="6" x="15" y="415.9453"/><text fill="#000000" font-family="sans-serif" font-size="14" lengthAdjust="spacing" textLength="226" x="27" y="422.292">TaskRepository taskRepository</text><rect fill="none" height="6" style="stroke:#C82930;stroke-width:1.0;" width="6" x="15" y="432.2422"/><text fill="#000000" font-family="sans-serif" font-size="14" lengthAdjust="spacing" textLength="211" x="27" y="438.5889">List&lt;TaskGroup&gt; taskGroups</text><line style="stroke:#A80036;stroke-width:1.0;" x1="8" x2="420" y1="445.8906" y2="445.8906"/><ellipse cx="18" cy="459.5391" fill="#84BE84" rx="3" ry="3" style="stroke:#038048;stroke-width:1.0;"/><text fill="#000000" font-family="sans-serif" font-size="14" lengthAdjust="spacing" textLength="234" x="27" y="462.8857">TaskManager() //load taskGroups</text><ellipse cx="18" cy="475.8359" fill="#84BE84" rx="3" ry="3" style="stroke:#038048;stroke-width:1.0;"/><text fill="#000000" font-family="sans-serif" font-size="14" lengthAdjust="spacing" textLength="326" x="27" y="479.1826">boolean create(Task task, String groupName)</text><ellipse cx="18" cy="492.1328" fill="#84BE84" rx="3" ry="3" style="stroke:#038048;stroke-width:1.0;"/><text fill="#000000" font-family="sans-serif" font-size="14" lengthAdjust="spacing" textLength="191" x="27" y="495.4795">boolean update(Task task)</text><ellipse cx="18" cy="508.4297" fill="#84BE84" rx="3" ry="3" style="stroke:#038048;stroke-width:1.0;"/><text fill="#000000" font-family="sans-serif" font-size="14" lengthAdjust="spacing" textLength="169" x="27" y="511.7764">boolean delete(UUID id)</text><ellipse cx="18" cy="524.7266" fill="#84BE84" rx="3" ry="3" style="stroke:#038048;stroke-width:1.0;"/><text fill="#000000" font-family="sans-serif" font-size="14" lengthAdjust="spacing" textLength="182" x="27" y="528.0732">List&lt;TaskGroup&gt; getAll()</text><ellipse cx="18" cy="541.0234" fill="#84BE84" rx="3" ry="3" style="stroke:#038048;stroke-width:1.0;"/><text fill="#000000" font-family="sans-serif" font-size="14" lengthAdjust="spacing" textLength="159" x="27" y="544.3701">void saveTasksToFile()</text><ellipse cx="18" cy="557.3203" fill="#84BE84" rx="3" ry="3" style="stroke:#038048;stroke-width:1.0;"/><text fill="#000000" font-family="sans-serif" font-size="14" lengthAdjust="spacing" textLength="183" x="27" y="560.667">boolean setDone(UUID id)</text><ellipse cx="18" cy="573.6172" fill="#84BE84" rx="3" ry="3" style="stroke:#038048;stroke-width:1.0;"/><text fill="#000000" font-family="sans-serif" font-size="14" lengthAdjust="spacing" textLength="269" x="27" y="576.9639">List&lt;Task&gt; getBy(String groupName)</text><ellipse cx="18" cy="589.9141" fill="#84BE84" rx="3" ry="3" style="stroke:#038048;stroke-width:1.0;"/><text fill="#000000" font-family="sans-serif" font-size="14" lengthAdjust="spacing" textLength="388" x="27" y="593.2607">List&lt;Task&gt; getBy(String groupName, Priority priority)</text><ellipse cx="18" cy="606.2109" fill="#84BE84" rx="3" ry="3" style="stroke:#038048;stroke-width:1.0;"/><text fill="#000000" font-family="sans-serif" font-size="14" lengthAdjust="spacing" textLength="375" x="27" y="609.5576">List&lt;Task&gt; getBy(String groupName, Boolean done)</text><ellipse cx="18" cy="622.5078" fill="#84BE84" rx="3" ry="3" style="stroke:#038048;stroke-width:1.0;"/><text fill="#000000" font-family="sans-serif" font-size="14" lengthAdjust="spacing" textLength="388" x="27" y="625.8545">List&lt;Task&gt; getBy(String groupName, Date olderThan)</text></g><!--class TaskRepository--><g id="elem_TaskRepository"><rect codeLine="74" fill="#FEFECE" filter="url(#f1uyr7jtbgtr0i)" height="80.5938" id="TaskRepository" style="stroke:#A80036;stroke-width:1.0;" width="406" x="11" y="767.2969"/><ellipse cx="153.75" cy="783.2969" fill="#ADD1B2" rx="11" ry="11" style="stroke:#A80036;stroke-width:1.0;"/><path d="M156.0938,778.9688 C155.1563,778.5313 154.5625,778.3906 153.6875,778.3906 C151.0625,778.3906 149.0625,780.4688 149.0625,783.1875 L149.0625,784.3125 C149.0625,786.8906 151.1719,788.7813 154.0625,788.7813 C155.2813,788.7813 156.4375,788.4844 157.1875,787.9375 C157.7656,787.5313 158.0938,787.0781 158.0938,786.6875 C158.0938,786.2344 157.7031,785.8438 157.2344,785.8438 C157.0156,785.8438 156.8125,785.9219 156.625,786.1094 C156.1719,786.5938 156.1719,786.5938 155.9844,786.6875 C155.5625,786.9531 154.875,787.0781 154.1094,787.0781 C152.0625,787.0781 150.7656,785.9844 150.7656,784.2813 L150.7656,783.1875 C150.7656,781.4063 152.0156,780.0938 153.75,780.0938 C154.3281,780.0938 154.9375,780.25 155.4063,780.5 C155.8906,780.7813 156.0625,781 156.1563,781.4063 C156.2188,781.8125 156.25,781.9375 156.3906,782.0625 C156.5313,782.2031 156.7656,782.3125 156.9844,782.3125 C157.25,782.3125 157.5156,782.1719 157.6875,781.9531 C157.7969,781.7969 157.8281,781.6094 157.8281,781.1875 L157.8281,779.7656 C157.8281,779.3281 157.8125,779.2031 157.7188,779.0469 C157.5625,778.7813 157.2813,778.6406 156.9844,778.6406 C156.6875,778.6406 156.4844,778.7344 156.2656,779.0469 L156.0938,778.9688 Z " fill="#000000"/><text fill="#000000" font-family="sans-serif" font-size="14" lengthAdjust="spacing" textLength="112" x="174.25" y="788.1436">TaskRepository</text><line style="stroke:#A80036;stroke-width:1.0;" x1="12" x2="416" y1="799.2969" y2="799.2969"/><line style="stroke:#A80036;stroke-width:1.0;" x1="12" x2="416" y1="807.2969" y2="807.2969"/><ellipse cx="22" cy="820.9453" fill="#84BE84" rx="3" ry="3" style="stroke:#038048;stroke-width:1.0;"/><text fill="#000000" font-family="sans-serif" font-size="14" lengthAdjust="spacing" textLength="169" x="31" y="824.292">List&lt;TaskGroup&gt; load()</text><ellipse cx="22" cy="837.2422" fill="#84BE84" rx="3" ry="3" style="stroke:#038048;stroke-width:1.0;"/><text fill="#000000" font-family="sans-serif" font-size="14" lengthAdjust="spacing" textLength="380" x="31" y="840.5889">void save(Map&lt;String, List&lt;TaskGroup&gt; taskGroups)</text></g><!--reverse link TodosApplication to TaskManager--><g id="link_TodosApplication_TaskManager"><path codeLine="79" d="M214,251.6089 C214,292.6829 214,329.1559 214,373.2079 " fill="none" id="TodosApplication-backto-TaskManager" style="stroke:#A80036;stroke-width:1.0;"/><polygon fill="#A80036" points="214,239.6089,210,245.6089,214,251.6089,218,245.6089,214,239.6089" style="stroke:#A80036;stroke-width:1.0;"/><text fill="#000000" font-family="sans-serif" font-size="13" lengthAdjust="spacing" textLength="54" x="215" y="282.3638">contains</text></g><!--reverse link TaskManager to TaskRepository--><g id="link_TaskManager_TaskRepository"><path codeLine="80" d="M214,645.4619 C214,693.6369 214,732.8669 214,767.0317 " fill="none" id="TaskManager-backto-TaskRepository" style="stroke:#A80036;stroke-width:1.0;"/><polygon fill="#A80036" points="214,633.4619,210,639.4619,214,645.4619,218,639.4619,214,633.4619" style="stroke:#A80036;stroke-width:1.0;"/><text fill="#000000" font-family="sans-serif" font-size="13" lengthAdjust="spacing" textLength="54" x="215" y="733.3638">contains</text></g><!--reverse link TaskGroup to Task--><g id="link_TaskGroup_Task"><path codeLine="81" d="M643.1619,243.2005 C642.9459,269.0845 642.802,286.4099 642.555,315.9719 " fill="none" id="TaskGroup-backto-Task" style="stroke:#A80036;stroke-width:1.0;"/><polygon fill="#A80036" points="643.262,231.2009,639.2121,237.1673,643.1619,243.2005,647.2118,237.234,643.262,231.2009" style="stroke:#A80036;stroke-width:1.0;"/><text fill="#000000" font-family="sans-serif" font-size="13" lengthAdjust="spacing" textLength="54" x="644" y="282.3638">contains</text></g><!--link Priority to Task--><g id="link_Priority_Task"><path codeLine="82" d="M429.167,190.6859 C438.828,206.2839 449.737,223.6159 460,239.2969 C476.391,264.3409 493.92,290.5219 511.379,316.2449 " fill="none" id="Priority-Task" style="stroke:#A80036;stroke-width:1.0;"/><text fill="#000000" font-family="sans-serif" font-size="13" lengthAdjust="spacing" textLength="54" x="490" y="282.3638">contains</text></g><!--SRC=[ZLLDRzmW4BtxLypHszYRUnLLIkeqMIcRhLglUgO6kIXUGC16MaNzxuK1s_YZIYwxyEQzWHaUsBnm0LeQbcMMsuv1VQWE1eXIKCBNZXW35IUj9gSiQt1QIohDhL8TRuZbKi1R1b3MnBpiYI0jqs37iG_zR8WG3ZRXtq5Ny2ev1NqM-MQSdWWFypBCAJUg8vVRhlF9JHfgD2EMUJX5pugke9HrR8bkjrit_PjbJ9nFy5rpgRczO2rFXr_kTtzVxOvxDtZSFJnwOgpUvS62ZyTT1PnYWLPpqGBsBvbJPXhDbU-HHuSrL1nuy4xAZX41L0gKLgw0M9qV-kOCEm-Zk6u1wQg5hmSAcCbHXUKQPdUqroACunRX2Qts-V8qEOOZu0IrvOumqLHZfVco-9dUarNFdgJfEvGlMeMq0MqJwdGVhejvsbACzW0t69ygN9VojQuXraR2Pdh-3rgUbJV1UDQ2d5W0dhYnDvxr1U-1GVHgaE7o4o39KC1S7TdzTfyTAHN4yDXS9Cn4uVRy9tC2jprrLcwyoiCr_y6KDDnAVS5CupHBoyVYmbeuDBs3Oxfy0zVNdIHqHlaTJokSH-uLo1WCtthgSon-e8UxFz8dmV04JEm_twShtZqqgJd8ApuQffRV1iFt2NklhMR4P7UNV7M_xx8AM7V_1uGBvtz0WpwN7MMw_aFmgauFVppTjxMs-GESDItV4tKJ5ahylB03ccpnBVbKbgddFaCZXNNV1PEb7vYUbJXnniGr1buQ7ReROsFe7m00]--></g></svg>